<svg xmlns="http://www.w3.org/2000/svg" width="1024" height="535" viewBox="0 0 1024 535">
<g>
<path d="M 573.85 532.94 C567.42,534.32 546.33,534.34 545.48,532.96 C545.13,532.39 544.98,521.55 545.16,508.87 L 545.47 485.81 L 561.99 486.15 C577.12,486.47 578.81,486.69 582.18,488.79 C590.84,494.18 594.47,501.25 593.82,511.48 C593.14,522.19 585.45,530.45 573.85,532.94 ZM 106.43 532.84 C100.06,534.12 75.37,534.44 74.69,533.25 C74.45,532.84 74.49,522.04 74.77,509.25 L 75.27 486.00 L 90.67 486.00 C107.69,486.00 111.58,486.91 114.65,491.59 C117.21,495.49 116.97,501.20 114.07,505.12 L 111.69 508.34 L 114.22 510.42 C117.72,513.30 119.00,516.16 119.00,521.07 C119.00,526.94 114.41,531.24 106.43,532.84 ZM 848.50 535.00 L 500.82 535.00 L 666.98 534.75 L 838.45 534.50 L 839.41 531.77 C840.76,527.95 839.81,527.54 835.14,529.93 C832.91,531.07 829.47,532.00 827.51,532.00 C820.63,532.00 812.70,527.09 809.41,520.80 C806.10,514.47 808.90,504.34 815.20,499.85 C819.47,496.81 829.83,496.07 835.41,498.40 L 835.65 498.50 C838.45,499.67 839.45,500.09 839.81,499.77 C840.00,499.60 840.00,499.21 840.00,498.60 L 840.00 498.50 C840.00,497.38 841.18,497.00 844.61,497.00 L 849.22 497.00 L 848.86 516.00 L 848.50 535.00 ZM 495.50 535.00 L 242.89 535.00 C463.46,535.00 485.84,534.85 486.39,533.42 C487.24,531.22 487.15,527.99 486.25,528.03 C485.84,528.05 484.65,528.71 483.61,529.49 C478.70,533.21 467.67,532.12 462.01,527.35 C457.66,523.69 456.00,519.93 456.00,513.70 C456.00,507.75 458.29,503.32 463.28,499.62 C467.07,496.82 478.50,496.10 483.08,498.39 L 483.14 498.42 C485.54,499.62 486.45,500.07 486.79,499.80 C487.00,499.64 487.00,499.21 487.00,498.53 L 487.00 498.50 C487.00,497.39 488.17,497.00 491.54,497.00 L 496.08 497.00 L 495.79 516.00 L 495.50 535.00 ZM 632.01 530.61 C627.02,533.92 617.33,534.78 612.00,532.39 C598.34,526.27 595.94,509.25 607.49,500.44 C611.31,497.53 620.52,496.12 627.37,497.41 C631.61,498.20 636.45,502.03 638.68,506.35 C642.62,513.96 639.38,525.73 632.01,530.61 ZM 391.82 531.40 C385.22,534.69 379.00,534.81 373.02,531.75 C366.75,528.55 362.82,523.23 362.24,517.16 C360.90,503.19 371.86,494.43 387.19,497.22 C396.80,498.96 402.00,505.25 402.00,515.12 C402.00,522.57 398.58,528.03 391.82,531.40 ZM 722.94 532.90 C713.88,535.61 703.30,532.89 698.51,526.60 C692.35,518.53 692.99,508.58 700.10,501.80 C704.60,497.51 708.42,496.52 717.68,497.26 C723.03,497.69 724.69,498.28 727.21,500.64 C731.02,504.23 733.00,508.78 733.00,513.97 L 733.00 518.00 L 718.50 518.00 C702.94,518.00 701.64,518.50 706.25,522.70 C711.57,527.55 716.30,528.20 722.41,524.92 L 726.29 522.84 L 728.90 525.46 L 731.50 528.08 L 729.06 529.94 C727.71,530.96 724.96,532.29 722.94,532.90 ZM 869.03 522.00 L 868.50 533.50 L 860.00 534.11 L 860.00 482.00 L 869.00 482.00 L 869.00 501.31 L 871.10 499.41 C872.69,497.97 875.09,497.42 880.95,497.15 C888.44,496.81 888.83,496.91 892.29,499.95 C896.87,503.97 898.26,509.89 897.82,523.50 L 897.50 533.50 L 888.50 533.50 L 888.22 521.04 C887.88,506.16 887.27,505.00 879.78,505.00 C874.32,505.00 871.65,506.06 870.40,508.72 C869.94,509.70 869.33,515.67 869.03,522.00 ZM 555.00 493.16 L 555.00 526.24 L 564.38 525.83 C572.76,525.46 574.15,525.12 577.40,522.64 C582.91,518.44 584.17,515.90 584.13,509.03 C584.10,502.26 581.89,498.01 577.17,495.62 C575.70,494.88 570.11,494.02 564.75,493.72 ZM 658.00 521.16 L 657.50 533.50 L 653.46 533.80 C651.24,533.96 649.11,533.77 648.71,533.38 C648.32,532.99 648.00,524.64 648.00,514.83 L 648.00 497.00 L 653.00 497.00 C657.45,497.00 658.00,497.24 658.00,499.15 C658.00,501.28 658.03,501.29 660.10,499.40 C661.83,497.85 663.75,497.50 670.69,497.50 C678.95,497.50 679.23,497.58 682.01,500.69 C685.48,504.57 686.22,508.91 685.81,523.00 L 685.50 533.50 L 677.50 533.50 L 677.00 521.28 C676.39,506.47 675.59,505.00 668.12,505.00 C664.79,505.00 662.46,505.61 660.86,506.91 C658.67,508.68 658.46,509.70 658.00,521.16 ZM 151.31 532.10 C144.32,535.66 135.04,533.78 130.75,527.92 C128.01,524.18 127.05,518.83 127.02,507.20 L 127.00 496.89 L 131.75 497.20 L 136.50 497.50 L 137.00 509.84 C137.46,521.30 137.67,522.32 139.86,524.09 C143.33,526.90 148.35,526.55 152.05,523.24 C155.09,520.53 155.15,520.29 155.72,508.74 L 156.30 497.00 L 165.05 497.00 L 164.77 515.25 L 164.50 533.50 L 160.82 533.81 C157.98,534.04 156.89,533.66 156.08,532.16 C155.05,530.22 154.99,530.22 151.31,532.10 ZM 420.00 521.16 L 419.50 533.50 L 415.29 533.81 L 411.09 534.11 L 410.79 515.55 L 410.50 497.00 L 414.75 497.00 C418.33,497.00 419.00,497.31 419.00,499.00 L 419.00 501.00 L 422.74 499.00 C427.76,496.31 437.29,496.27 441.63,498.92 C446.67,501.99 448.13,507.33 447.79,521.50 L 447.50 533.50 L 438.91 533.50 L 438.71 521.35 C438.53,510.99 438.22,508.90 436.60,507.10 C434.04,504.28 426.24,504.17 422.86,506.91 C420.67,508.68 420.46,509.70 420.00,521.16 ZM 290.36 532.62 C286.04,534.43 276.65,534.30 271.00,532.36 C264.97,530.28 264.57,529.74 266.42,526.16 L 268.00 523.10 L 272.25 525.03 C277.49,527.41 285.25,527.61 287.43,525.43 C291.05,521.80 288.75,519.83 279.39,518.55 C269.64,517.22 264.82,512.25 266.58,505.32 C268.01,499.68 271.69,497.57 280.85,497.16 C285.10,496.97 290.44,497.31 292.73,497.93 L 296.88 499.05 L 295.50 502.27 C294.55,504.50 293.56,505.40 292.31,505.17 C291.32,504.98 287.56,504.60 283.96,504.32 C278.61,503.89 277.16,504.11 276.01,505.48 C273.57,508.42 276.01,510.24 284.99,512.17 C294.99,514.32 298.00,516.60 298.00,522.04 C298.00,526.51 294.98,530.69 290.36,532.62 ZM 327.14 532.26 C325.23,534.17 315.78,534.25 312.87,532.38 C308.02,529.26 307.00,526.16 307.00,514.60 L 307.00 504.00 L 304.00 504.00 C301.25,504.00 301.00,503.71 301.00,500.57 C301.00,497.56 301.35,497.09 303.75,496.82 C306.21,496.53 306.53,496.05 306.81,492.25 L 307.11 488.00 L 315.89 488.00 L 316.50 496.50 L 321.31 496.81 C326.06,497.11 326.11,497.15 325.81,500.31 C325.51,503.37 325.30,503.51 320.66,503.81 L 315.82 504.12 L 316.16 514.14 C316.45,522.78 316.78,524.37 318.50,525.63 C320.42,527.04 321.57,527.03 325.16,525.54 C326.43,525.02 326.97,525.59 327.51,528.03 C327.92,529.89 327.76,531.64 327.14,532.26 ZM 240.41 532.07 C238.05,534.03 229.92,534.28 226.45,532.51 C221.19,529.81 220.00,526.51 220.00,514.60 L 220.00 504.00 L 217.00 504.00 C214.25,504.00 214.00,503.71 214.00,500.57 C214.00,497.56 214.35,497.09 216.75,496.82 C219.21,496.53 219.53,496.05 219.81,492.25 L 220.11 488.00 L 229.00 488.00 L 229.00 497.00 L 233.83 497.00 C236.49,497.00 238.89,497.22 239.16,497.49 C239.43,497.77 239.46,499.34 239.21,500.99 C238.79,503.86 238.55,504.00 233.89,504.00 L 229.00 504.00 L 229.00 513.50 C229.00,521.81 229.26,523.26 231.09,525.09 C232.70,526.70 233.94,527.05 236.43,526.58 C239.19,526.06 239.83,526.33 240.78,528.41 C241.66,530.34 241.58,531.10 240.41,532.07 ZM 929.43 532.68 C926.81,534.59 919.03,534.19 915.56,531.98 C910.86,528.97 910.07,526.52 910.04,514.75 L 910.00 504.00 L 907.00 504.00 C904.25,504.00 904.00,503.71 904.00,500.57 C904.00,497.56 904.35,497.09 906.75,496.82 C909.21,496.53 909.53,496.05 909.81,492.25 L 910.11 488.00 L 919.00 488.00 L 919.00 497.00 L 929.13 497.00 L 928.81 500.25 C928.51,503.37 928.30,503.51 923.75,503.80 L 919.00 504.11 L 919.00 513.55 C919.00,521.81 919.26,523.26 921.09,525.09 C923.07,527.07 924.27,527.15 928.16,525.54 C930.74,524.47 931.88,530.88 929.43,532.68 ZM 205.77 507.75 L 205.50 533.50 L 197.00 534.11 L 197.00 482.00 L 206.03 482.00 ZM 770.09 524.36 L 770.30 533.50 L 766.36 533.80 C764.20,533.96 762.11,533.77 761.71,533.38 C761.32,532.99 761.00,524.64 761.00,514.83 L 761.00 497.00 L 765.50 497.00 C769.32,497.00 770.00,497.30 770.00,498.99 C770.00,500.96 770.01,500.96 773.25,498.99 C776.82,496.81 782.61,496.33 783.22,498.16 C783.43,498.80 783.42,500.60 783.19,502.16 C782.85,504.46 782.27,505.00 780.11,505.00 C773.02,505.00 769.79,511.23 770.09,524.36 ZM 345.00 521.78 L 344.50 533.50 L 336.00 534.11 L 336.00 497.00 L 340.50 497.00 C344.44,497.00 345.00,497.27 345.00,499.15 C345.00,501.13 345.15,501.18 346.75,499.77 C348.47,498.27 349.65,497.82 355.31,496.56 C358.08,495.94 358.11,495.99 357.81,500.20 C357.51,504.31 357.35,504.50 353.67,505.09 C346.71,506.22 345.57,508.41 345.00,521.78 ZM 615.24 525.00 C619.28,527.47 621.71,527.51 625.27,525.16 C629.52,522.36 630.93,519.89 630.97,515.18 C631.01,509.85 629.79,507.46 626.02,505.51 C612.53,498.53 602.26,517.09 615.24,525.00 ZM 378.50 526.08 C383.68,528.33 391.43,523.54 392.59,517.39 C392.92,515.60 392.67,512.52 392.02,510.55 C389.58,503.18 379.25,501.79 373.64,508.08 C371.16,510.86 370.84,511.88 371.27,515.71 C371.78,520.26 374.70,524.44 378.50,526.08 ZM 820.98 521.13 C826.97,526.13 835.04,524.68 838.51,517.99 C840.66,513.82 840.36,511.43 837.25,507.98 C835.10,505.60 833.39,504.81 829.40,504.35 C824.74,503.81 824.02,504.01 820.92,506.78 C818.09,509.31 817.55,510.48 817.55,514.03 C817.55,517.62 818.06,518.69 820.98,521.13 ZM 468.27 520.47 C471.19,523.39 472.53,524.00 476.00,524.00 C479.44,524.00 480.81,523.39 483.60,520.60 C491.69,512.51 483.60,501.41 472.12,504.85 C467.28,506.30 465.96,507.85 465.28,512.93 C464.80,516.53 465.11,517.31 468.27,520.47 ZM 799.77 515.25 L 799.50 533.50 L 791.00 534.11 L 791.00 497.00 L 800.05 497.00 ZM 184.77 515.25 L 184.50 533.50 L 180.96 533.80 C179.02,533.96 177.11,533.77 176.71,533.38 C176.32,532.99 176.00,524.64 176.00,514.83 L 176.00 497.00 L 185.05 497.00 ZM 84.00 513.00 L 84.00 526.00 L 94.28 526.00 C106.24,526.00 109.00,524.83 109.00,519.77 C109.00,513.95 107.02,513.00 94.85,513.00 ZM 84.00 493.00 L 84.00 506.24 L 92.87 505.82 C103.39,505.32 107.00,503.58 107.00,499.03 C107.00,494.31 104.03,493.00 93.28,493.00 ZM 704.00 510.07 C704.00,511.85 704.79,512.00 714.00,512.00 C725.10,512.00 726.25,511.16 721.55,506.45 C716.74,501.65 704.00,504.28 704.00,510.07 ZM 945.78 532.44 C942.71,534.59 940.72,534.39 938.17,531.69 C935.60,528.94 935.45,527.22 937.56,524.22 C939.60,521.30 945.46,521.12 946.96,523.93 C948.68,527.13 948.17,530.77 945.78,532.44 ZM 515.26 530.86 C512.51,534.57 508.77,534.79 506.12,531.42 C503.47,528.05 503.46,526.54 506.06,523.94 C509.09,520.91 514.07,521.63 515.85,525.36 C517.07,527.92 517.01,528.51 515.26,530.86 ZM 799.17 489.35 C794.28,493.77 786.92,488.41 790.63,483.11 C793.40,479.17 801.00,481.22 801.00,485.92 C801.00,486.89 800.18,488.43 799.17,489.35 ZM 184.80 489.80 C181.87,492.73 175.00,489.89 175.00,485.74 C175.00,483.29 177.84,481.00 180.87,481.00 C184.30,481.00 186.00,482.66 186.00,486.00 C186.00,487.43 185.46,489.14 184.80,489.80 ZM 905.88 448.92 C906.60,449.37 907.04,450.49 906.85,451.40 C906.55,452.82 906.30,452.75 905.18,450.94 C903.68,448.51 903.95,447.73 905.88,448.92 Z" fill="rgb(3,4,6)"/>
<path d="M 0.00 0.00 L 1024.00 0.00 L 1024.00 402.00 L 995.13 402.00 L 994.82 399.35 C994.64,397.89 993.28,395.79 991.79,394.69 C989.25,392.79 987.67,392.68 965.08,392.79 C939.94,392.91 937.69,393.27 933.89,397.65 C933.01,398.67 931.77,401.03 931.14,402.90 C929.62,407.42 929.81,429.54 931.40,433.94 C932.92,438.15 936.61,441.05 941.69,442.03 C948.91,443.43 984.76,443.13 988.28,441.64 C992.45,439.87 994.82,437.15 995.61,433.21 L 996.24 430.05 L 977.87 429.77 L 959.50 429.50 L 958.92 411.00 L 1024.00 411.00 L 1024.00 535.00 L 1023.98 445.50 L 1021.61 450.60 C1018.97,456.25 1014.48,460.01 1008.50,461.56 C1007.95,461.70 1004.82,462.54 1001.54,463.41 C996.70,464.70 989.75,465.00 964.66,465.00 C935.60,465.00 930.18,464.61 923.50,462.00 C922.40,461.57 919.47,460.67 917.00,460.01 C913.34,459.02 909.50,456.09 906.53,452.31 C906.66,452.18 906.75,451.87 906.85,451.40 C907.04,450.49 906.60,449.37 905.88,448.92 C904.70,448.20 904.14,448.20 904.23,448.87 C903.60,447.77 903.06,446.62 902.62,445.46 C901.11,441.50 900.64,436.84 900.25,422.35 C899.73,402.93 900.73,393.39 903.96,387.10 C911.01,373.35 920.56,370.75 964.50,370.61 C994.01,370.51 1002.62,371.28 1010.96,374.76 C1014.29,376.15 1021.76,383.58 1023.18,386.91 C1023.18,386.91 1023.18,386.91 1023.19,386.91 C1023.56,386.91 1023.89,300.55 1023.93,194.25 L 1024.00 0.00 L 772.25 0.17 C635.30,0.27 524.96,0.48 524.96,0.65 C524.96,0.65 524.97,0.65 525.00,0.66 C565.29,3.40 601.06,17.43 630.48,42.01 C635.03,45.81 647.96,58.42 647.98,59.08 C647.99,59.40 649.80,61.62 652.00,64.00 C654.20,66.38 656.01,68.82 656.02,69.42 C656.02,70.01 657.26,71.92 658.77,73.66 C663.55,79.19 665.38,81.97 670.67,91.76 C683.70,115.85 690.36,140.26 691.65,168.57 C693.30,204.83 682.31,243.54 661.71,274.00 C635.32,313.01 595.89,339.28 549.00,349.09 C540.71,350.83 512.88,351.86 499.00,350.96 C448.66,347.66 399.04,318.10 368.81,273.38 C358.40,257.98 347.18,232.89 344.51,219.07 C344.35,218.20 343.74,215.69 343.16,213.50 C338.07,194.03 338.24,158.14 343.54,135.54 C347.57,118.38 356.67,96.51 364.99,84.00 C370.16,76.22 373.46,71.44 373.97,71.00 C374.29,70.72 375.33,69.26 376.29,67.75 C379.49,62.73 397.39,44.81 405.50,38.52 C416.16,30.24 423.15,25.89 437.10,18.87 C457.44,8.62 478.06,2.92 503.00,0.64 C503.02,0.64 503.02,0.64 503.02,0.64 C503.02,0.46 391.36,0.25 253.25,0.16 ZM 496.57 332.28 C506.10,333.72 533.16,333.02 543.00,331.08 C553.51,329.00 572.91,322.58 582.55,317.98 C607.46,306.09 629.08,287.59 644.80,264.68 C651.54,254.87 660.51,237.33 663.81,227.50 C677.79,185.93 674.52,139.79 655.03,103.50 C632.65,61.85 592.71,31.64 548.00,22.54 C535.34,19.97 506.68,18.60 498.50,20.18 C496.30,20.60 490.45,21.68 485.50,22.58 C467.57,25.82 445.54,34.71 429.18,45.32 C421.22,50.49 403.45,65.12 400.61,68.86 C399.50,70.31 396.58,73.75 394.13,76.50 C388.85,82.42 378.53,98.02 374.14,106.73 C364.22,126.38 358.24,151.24 357.84,174.50 C357.58,190.29 361.83,214.28 367.64,229.80 C370.73,238.05 379.08,255.38 380.19,255.83 C380.63,256.02 381.00,256.61 381.00,257.15 C381.00,257.69 384.22,262.49 388.15,267.82 C400.11,284.01 416.38,299.04 434.20,310.38 C437.34,312.37 440.19,314.00 440.55,314.00 C440.90,314.00 442.39,314.84 443.85,315.87 C449.17,319.61 476.26,329.20 485.50,330.61 C487.15,330.86 492.13,331.61 496.57,332.28 ZM 0.00 464.13 L 0.00 371.89 L 51.75 372.23 C108.15,372.61 108.60,372.65 115.42,378.51 C117.01,379.88 118.62,381.00 119.00,381.00 C120.34,381.00 124.80,390.58 125.89,395.80 C126.50,398.71 127.00,408.86 127.00,418.34 C127.00,438.20 125.67,445.33 120.97,450.68 C119.34,452.55 118.00,454.48 118.00,454.97 C118.00,456.07 106.68,461.67 102.50,462.64 C100.85,463.03 77.11,463.52 49.75,463.74 ZM 588.80 452.09 L 589.09 464.00 L 574.05 464.00 C565.77,464.00 559.00,463.89 558.99,463.75 C558.99,463.61 558.82,442.91 558.60,417.75 L 558.22 372.00 L 604.40 372.00 C654.91,372.00 658.64,372.35 666.40,377.77 C668.54,379.28 671.69,382.97 673.40,386.00 C676.44,391.40 676.50,391.75 676.50,405.00 C676.50,417.58 676.32,418.88 673.84,424.00 C670.62,430.65 668.04,433.18 661.49,436.18 C656.67,438.39 655.36,438.48 623.00,438.82 C604.58,439.02 589.28,439.40 589.00,439.68 C588.72,439.95 588.63,445.53 588.80,452.09 ZM 777.22 445.25 L 777.50 464.00 L 748.00 464.00 L 748.00 372.00 L 772.25 372.04 L 796.50 372.08 L 806.50 384.22 C812.00,390.89 816.83,397.18 817.23,398.20 C817.63,399.21 818.64,400.31 819.48,400.63 C820.31,400.95 821.00,401.68 821.00,402.24 C821.00,402.81 822.04,404.22 823.32,405.38 C825.79,407.64 843.00,428.56 843.00,429.31 C843.00,429.55 844.76,431.67 846.92,434.03 L 850.83 438.31 L 851.55 433.53 C851.94,430.91 852.05,417.67 851.78,404.13 C851.52,390.58 851.51,377.81 851.76,375.75 L 852.22 372.00 L 881.02 372.00 L 880.76 417.75 L 880.50 463.50 L 857.82 463.77 L 835.14 464.04 L 826.35 453.27 C821.51,447.35 817.29,442.27 816.97,442.00 C816.65,441.73 813.72,438.18 810.45,434.12 C801.38,422.85 794.25,414.22 786.00,404.49 L 778.50 395.65 L 777.72 411.08 C777.29,419.56 777.06,434.94 777.22,445.25 ZM 222.50 451.84 L 222.50 463.50 L 207.25 463.78 L 192.00 464.05 L 192.00 371.89 L 240.75 372.20 C289.18,372.51 289.53,372.53 294.50,374.81 C305.47,379.86 310.32,389.23 310.35,405.50 C310.39,421.72 305.50,431.32 294.79,436.06 C289.65,438.33 288.57,438.41 256.55,438.73 C238.43,438.91 223.35,439.31 223.05,439.62 C222.75,439.92 222.50,445.42 222.50,451.84 ZM 399.78 451.31 L 399.50 463.50 L 370.00 464.05 L 370.00 371.91 L 467.50 372.50 L 473.00 375.14 C484.19,380.53 488.00,388.16 488.00,405.21 C488.00,421.33 483.96,430.43 474.70,435.15 C469.17,437.97 467.89,438.08 431.78,438.64 L 400.06 439.13 ZM 30.78 417.69 L 31.07 441.50 L 57.78 441.23 C87.25,440.93 90.89,440.36 94.31,435.57 C96.23,432.88 96.54,430.93 96.85,419.96 C97.28,404.14 96.26,399.95 91.23,396.82 C87.59,394.56 86.81,394.49 59.00,394.19 L 30.50 393.89 ZM 536.23 418.00 L 536.50 464.00 L 506.00 464.00 L 506.00 372.00 L 535.96 372.00 ZM 725.23 420.75 L 724.96 464.00 L 695.00 464.00 L 695.00 372.00 L 724.77 372.00 L 725.14 374.75 C725.34,376.26 725.38,396.96 725.23,420.75 ZM 588.79 407.25 L 589.19 417.00 L 613.53 417.00 C626.92,417.00 639.00,416.57 640.38,416.04 C641.76,415.52 643.65,413.94 644.56,412.54 C646.49,409.60 646.80,401.36 645.09,398.17 C642.80,393.89 640.67,393.54 614.76,393.17 L 590.02 392.82 L 589.21 395.16 C588.76,396.45 588.57,401.89 588.79,407.25 ZM 400.71 416.38 C401.11,416.77 412.84,416.96 426.80,416.80 L 452.17 416.50 L 455.08 413.23 C457.48,410.56 458.00,409.08 458.00,405.00 C458.00,400.96 457.47,399.44 455.17,396.87 L 452.34 393.70 L 434.84 393.22 C425.21,392.95 413.43,393.06 408.66,393.46 L 400.00 394.18 L 400.00 404.92 C400.00,410.83 400.32,415.99 400.71,416.38 ZM 222.81 406.32 L 223.13 417.00 L 246.92 417.00 C260.63,417.00 271.95,416.56 273.65,415.97 C279.94,413.78 282.30,402.79 277.64,397.37 C274.65,393.89 268.54,393.12 243.32,393.05 C229.56,393.01 224.82,393.32 223.82,394.32 C222.85,395.29 222.58,398.45 222.81,406.32 ZM 558.69 105.40 L 556.26 107.83 L 514.88 107.80 C492.12,107.77 472.83,107.53 472.00,107.25 C468.68,106.12 467.00,103.63 467.00,99.84 L 467.00 95.98 L 560.50 96.50 L 560.81 99.73 C561.04,102.10 560.47,103.62 558.69,105.40 ZM 559.65 88.69 C558.91,89.42 538.94,89.57 506.00,89.07 L 467.50 88.50 L 467.19 85.31 C466.98,83.12 467.53,81.47 468.94,80.06 C470.96,78.04 471.93,78.00 513.55,78.00 L 556.09 78.00 L 558.64 80.55 C560.63,82.54 561.04,83.69 560.51,85.80 C560.14,87.28 559.75,88.58 559.65,88.69 ZM 350.00 438.00 L 350.00 464.00 L 321.00 464.00 L 321.00 438.00 ZM 172.65 456.35 L 173.29 464.00 L 159.21 464.00 C149.08,464.00 144.90,463.65 144.35,462.76 C143.40,461.23 142.83,444.51 143.60,440.75 L 144.16 438.00 L 172.00 438.00 L 172.00 443.35 C172.00,446.29 172.29,452.14 172.65,456.35 ZM 550.00 120.44 C550.00,124.53 549.55,128.16 549.00,128.50 C548.96,128.52 548.93,128.55 548.89,128.57 C548.54,128.78 548.30,128.93 548.13,128.88 C547.73,128.75 547.69,127.52 547.49,123.50 C547.35,120.75 547.18,118.26 547.12,117.97 C547.05,117.67 534.06,117.33 518.25,117.21 C502.44,117.09 487.16,116.87 484.29,116.72 L 479.08 116.46 L 478.73 122.48 C478.41,128.15 478.37,128.04 478.19,120.75 L 478.00 113.00 L 550.00 113.00 ZM 427.00 131.00 C427.00,135.44 425.56,136.36 424.60,132.53 C424.26,131.17 423.08,129.58 421.98,128.99 C420.27,128.07 419.83,128.31 418.95,130.62 C418.18,132.64 417.64,133.04 416.79,132.19 C414.79,130.19 418.71,127.00 423.15,127.00 C426.97,127.00 427.00,127.03 427.00,131.00 Z" fill="rgb(9,39,67)"/>
<path d="M 576.88 174.75 C576.75,186.47 575.34,195.85 575.12,186.44 C574.92,177.89 574.22,177.49 559.33,177.54 C552.27,177.56 542.22,177.84 537.00,178.16 C531.30,178.51 527.00,178.34 526.25,177.75 C525.38,177.05 524.97,177.17 524.92,178.13 C524.87,178.88 524.72,180.52 524.58,181.77 C524.44,183.01 524.96,184.55 525.72,185.18 C526.48,185.82 527.60,187.27 528.20,188.42 C529.29,190.50 529.29,190.50 527.08,188.53 C525.86,187.45 522.56,181.94 519.75,176.28 C516.94,170.63 514.16,166.01 513.57,166.02 C512.98,166.03 511.15,168.32 509.50,171.10 C507.85,173.88 505.61,177.11 504.53,178.27 C503.45,179.44 502.48,180.92 502.39,181.57 C502.14,183.26 498.91,188.00 498.00,188.00 C496.68,188.00 499.65,180.77 501.37,179.81 C503.14,178.82 503.60,174.49 502.04,173.52 C501.06,172.92 497.00,176.35 497.00,177.78 C497.00,178.66 466.46,178.47 462.23,177.57 C457.62,176.58 453.45,179.93 452.17,185.66 C451.30,189.60 451.15,187.06 451.38,172.00 C451.57,159.03 452.05,152.75 452.98,151.00 C453.71,149.62 454.64,147.82 455.04,147.00 C455.71,145.61 457.08,145.49 462.50,146.31 C463.60,146.48 465.04,146.21 465.71,145.72 C466.42,145.19 471.32,145.27 477.71,145.92 C501.14,148.28 523.21,149.06 547.22,148.39 C566.55,147.86 572.27,147.98 573.47,148.98 C574.57,149.89 575.00,152.17 575.00,157.12 C575.00,161.04 575.43,164.00 576.00,164.00 C576.61,164.00 576.95,168.17 576.88,174.75 ZM 612.00 168.00 C612.00,179.33 611.63,186.00 611.00,186.00 C610.45,186.00 610.00,184.63 610.00,182.96 C610.00,179.56 607.43,175.00 605.51,175.00 C603.57,175.00 601.74,177.72 600.95,181.80 C599.78,187.82 599.87,161.04 601.06,150.17 C602.40,137.88 603.27,135.54 606.00,137.00 C607.30,137.69 608.00,139.09 608.00,140.98 C608.00,142.57 608.45,144.16 609.00,144.50 C609.55,144.84 610.00,146.22 610.00,147.56 C610.00,148.90 610.45,150.00 611.00,150.00 C611.63,150.00 612.00,156.67 612.00,168.00 ZM 446.00 182.00 C446.00,195.86 444.86,200.24 443.54,191.45 C442.56,184.91 440.08,177.00 439.00,177.00 C438.49,177.00 437.59,178.91 437.00,181.25 C434.58,190.84 434.05,189.48 434.38,174.50 C434.88,151.98 438.16,141.31 441.56,151.14 C442.25,153.14 443.14,157.75 443.52,161.39 C443.91,165.02 444.63,168.00 445.12,168.00 C445.60,168.00 446.00,174.30 446.00,182.00 ZM 584.74 180.86 C584.17,181.43 583.35,183.61 582.92,185.70 C582.45,187.96 582.20,181.88 582.31,170.71 C582.47,155.43 582.77,151.76 583.97,151.02 C584.87,150.46 585.91,150.51 586.67,151.14 C588.46,152.63 589.99,151.30 590.08,148.19 C590.12,146.71 590.39,146.07 590.66,146.76 C590.94,147.45 591.65,147.71 592.25,147.35 C593.00,146.88 593.13,149.62 592.67,156.59 C592.31,162.04 592.00,170.32 591.99,175.00 C591.98,180.86 591.67,183.03 591.00,182.00 C590.47,181.18 590.02,180.85 590.02,181.29 C590.01,181.72 589.05,181.56 587.89,180.94 C586.43,180.16 585.47,180.13 584.74,180.86 ZM 427.00 173.00 C427.00,182.33 426.62,188.00 426.00,188.00 C425.45,188.00 425.00,186.02 425.00,183.61 C425.00,180.80 424.32,178.38 423.11,176.89 L 421.22 174.55 L 419.18 179.03 C418.06,181.49 416.93,184.40 416.69,185.50 C416.44,186.60 416.18,180.87 416.12,172.78 C416.01,159.51 416.22,157.61 418.20,153.53 C419.41,151.04 420.75,149.00 421.17,149.00 C422.19,149.00 425.00,154.47 425.00,156.45 C425.00,157.30 425.45,158.00 426.00,158.00 C426.62,158.00 427.00,163.67 427.00,173.00 ZM 505.00 192.12 C505.00,192.73 503.65,194.77 502.00,196.65 C497.25,202.06 498.46,199.55 505.64,189.14 L 506.27 188.22 C511.54,180.56 512.79,178.75 513.30,178.94 C513.47,179.00 513.56,179.31 513.70,179.70 C513.94,180.35 515.89,183.62 518.04,186.95 C522.05,193.15 522.20,194.38 518.56,191.19 C515.71,188.69 511.00,186.75 511.00,188.08 C511.00,188.65 510.55,188.84 510.00,188.50 C509.45,188.16 509.00,188.58 509.00,189.44 C509.00,190.30 508.66,190.95 508.25,190.88 C506.35,190.58 505.00,191.10 505.00,192.12 Z" fill="rgb(23,105,136)"/>
<path d="M 550.00 120.44 L 550.00 120.85 C550.00,127.34 550.39,129.28 552.25,132.05 C555.71,137.18 559.56,138.92 568.06,139.23 C573.53,139.43 575.67,139.90 576.14,141.00 C576.50,141.82 576.82,151.95 576.87,163.50 C576.88,165.74 576.87,167.96 576.86,170.10 C576.76,166.27 576.45,164.00 576.00,164.00 C575.43,164.00 575.00,161.04 575.00,157.12 C575.00,152.17 574.57,149.89 573.47,148.98 C572.27,147.98 566.55,147.86 547.22,148.39 C523.21,149.06 501.14,148.28 477.71,145.92 C471.32,145.27 466.42,145.19 465.71,145.72 C465.04,146.21 463.60,146.48 462.50,146.31 C457.08,145.49 455.71,145.61 455.04,147.00 C454.64,147.82 453.71,149.62 452.98,151.00 C452.05,152.75 451.57,159.03 451.38,172.00 C451.32,175.46 451.29,178.26 451.28,180.47 C451.20,177.04 451.15,172.10 451.12,165.38 L 451.00 140.26 L 458.86 139.80 C472.63,139.00 477.95,133.56 477.98,120.25 L 478.00 113.00 L 478.19 120.75 C478.37,128.04 478.41,128.15 478.73,122.48 L 479.08 116.46 L 484.29 116.72 C487.16,116.87 502.44,117.09 518.25,117.21 C534.06,117.33 547.05,117.67 547.12,117.97 C547.18,118.26 547.35,120.75 547.49,123.50 C547.69,127.52 547.73,128.75 548.13,128.88 C548.30,128.93 548.54,128.78 548.89,128.57 C548.93,128.55 548.96,128.52 549.00,128.50 C549.55,128.16 550.00,124.53 550.00,120.44 ZM 445.81 164.09 C445.88,168.95 445.92,173.25 445.94,176.99 C445.81,171.74 445.49,168.00 445.12,168.00 C444.63,168.00 443.91,165.02 443.52,161.39 C443.14,157.75 442.25,153.14 441.56,151.14 C438.16,141.31 434.88,151.98 434.38,174.50 C434.35,175.84 434.33,177.07 434.32,178.20 C434.24,173.71 434.26,167.26 434.31,158.50 L 434.50 127.50 L 438.19 127.19 C441.26,126.94 442.17,127.33 443.62,129.54 C445.14,131.87 445.41,135.98 445.81,164.09 ZM 592.88 148.64 C592.78,147.55 592.57,147.14 592.25,147.35 C591.65,147.71 590.94,147.45 590.66,146.76 C590.39,146.07 590.12,146.71 590.08,148.19 C589.99,151.30 588.46,152.63 586.67,151.14 C585.91,150.51 584.87,150.46 583.97,151.02 C582.77,151.76 582.47,155.43 582.31,170.71 C582.30,172.23 582.29,173.66 582.29,174.98 C582.20,170.77 582.14,165.58 582.11,159.81 C582.00,130.19 582.01,130.11 584.22,128.56 C585.44,127.70 587.92,127.00 589.72,127.00 L 593.00 127.00 L 593.00 137.75 C593.00,141.21 592.95,144.91 592.88,148.64 ZM 427.00 157.50 C427.00,161.36 426.99,164.89 426.96,168.05 C426.85,161.70 426.50,158.00 426.00,158.00 C425.45,158.00 425.00,157.30 425.00,156.45 C425.00,154.47 422.19,149.00 421.17,149.00 C420.75,149.00 419.41,151.04 418.20,153.53 C416.80,156.40 416.29,158.20 416.14,163.67 C416.13,162.13 416.12,160.54 416.12,158.90 L 416.11 158.21 C416.06,144.03 416.02,136.29 416.68,132.07 C416.71,132.11 416.75,132.15 416.79,132.19 C417.64,133.04 418.18,132.64 418.95,130.62 C419.83,128.31 420.27,128.07 421.98,128.99 C423.08,129.58 424.26,131.17 424.60,132.53 C425.56,136.36 427.00,135.44 427.00,131.00 C427.00,127.09 426.97,127.00 423.33,127.00 L 427.00 127.00 ZM 612.00 158.72 C612.00,160.71 612.00,162.60 611.99,164.38 C611.91,155.26 611.56,150.00 611.00,150.00 C610.45,150.00 610.00,148.90 610.00,147.56 C610.00,146.22 609.55,144.84 609.00,144.50 C608.45,144.16 608.00,142.57 608.00,140.98 C608.00,139.09 607.30,137.69 606.00,137.00 C603.27,135.54 602.40,137.88 601.06,150.17 C600.61,154.26 600.32,160.59 600.19,166.59 C600.15,163.91 600.13,160.96 600.11,157.83 C600.05,142.61 600.27,129.45 600.61,128.58 C601.01,127.52 602.47,127.00 605.05,127.00 C611.86,127.00 612.00,127.63 612.00,158.72 ZM 574.22 10.37 C595.01,17.29 613.31,27.66 630.48,42.01 C613.68,27.98 594.82,17.38 574.22,10.37 ZM 425.43 25.05 C433.40,20.38 441.70,16.32 450.18,12.93 C445.78,14.71 441.43,16.69 437.10,18.87 C432.60,21.13 428.83,23.12 425.43,25.05 ZM 417.68 128.75 C417.98,128.25 418.33,127.89 418.74,127.64 C419.78,127.00 421.20,127.00 423.15,127.00 C421.01,127.00 418.98,127.75 417.68,128.75 ZM 592.04 171.29 C592.14,166.68 592.39,160.79 592.67,156.59 L 592.68 156.40 C592.51,161.84 592.29,167.03 592.04,171.29 ZM 445.88 188.90 C445.78,193.64 445.57,196.00 445.25,196.00 C445.17,196.00 445.09,195.96 445.00,195.88 C445.41,195.35 445.72,192.94 445.88,188.90 ZM 575.47 190.23 C575.20,190.86 575.17,189.74 575.10,186.44 C575.04,183.23 574.90,181.18 573.96,179.86 C574.90,181.18 575.04,183.23 575.12,186.44 C575.17,188.78 575.30,189.96 575.47,190.23 ZM 468.23 6.79 C474.39,5.07 480.58,3.70 486.76,2.71 C480.35,3.79 474.20,5.14 468.23,6.79 ZM 451.86 186.87 C451.95,186.59 452.06,186.18 452.17,185.66 C452.67,183.44 453.60,181.57 454.82,180.18 C453.61,181.57 452.70,183.44 452.24,185.66 C452.10,186.35 451.97,186.77 451.86,186.87 ZM 527.71 0.60 C526.57,0.62 525.98,0.63 525.98,0.64 C525.98,0.64 525.98,0.65 526.00,0.65 C527.47,0.78 528.92,0.93 530.36,1.09 C528.58,0.92 526.80,0.78 525.00,0.66 C524.97,0.65 524.96,0.65 524.96,0.65 C524.96,0.64 525.90,0.62 527.71,0.60 ZM 498.82 1.06 C500.29,0.86 501.44,0.70 502.00,0.63 C502.01,0.62 502.01,0.62 502.01,0.62 C502.01,0.61 501.84,0.61 501.50,0.60 C502.51,0.61 503.02,0.62 503.02,0.64 C503.02,0.64 503.02,0.64 503.00,0.64 C501.59,0.77 500.20,0.91 498.82,1.06 ZM 582.86 185.94 C582.88,185.87 582.90,185.79 582.92,185.70 C583.35,183.61 584.17,181.43 584.74,180.86 C584.17,181.43 583.37,183.61 582.97,185.70 C582.93,185.89 582.89,185.96 582.86,185.94 ZM 576.38 185.54 C576.31,186.45 576.23,187.17 576.15,187.64 C576.23,187.03 576.30,186.32 576.38,185.54 ZM 590.75 181.64 C590.80,181.70 590.85,181.77 590.90,181.84 C590.88,181.84 590.87,181.82 590.86,181.80 C590.82,181.74 590.78,181.69 590.75,181.64 Z" fill="rgb(18,70,103)"/>
<path d="M 575.47 190.23 C575.67,190.55 575.92,189.54 576.15,187.64 C576.23,187.17 576.31,186.45 576.38,185.54 C576.41,185.11 576.45,184.65 576.49,184.17 C576.38,193.98 576.22,202.94 576.05,207.75 C576.01,208.70 572.05,209.00 559.70,209.00 L 543.39 209.00 L 540.27 205.75 C535.97,201.27 530.94,194.69 526.59,188.01 C526.78,188.24 526.94,188.41 527.08,188.53 C529.29,190.50 529.29,190.50 528.20,188.42 C527.60,187.27 526.48,185.82 525.72,185.18 C524.96,184.55 524.44,183.01 524.58,181.77 C524.72,180.52 524.87,178.88 524.92,178.13 C524.97,177.17 525.38,177.05 526.25,177.75 C527.00,178.34 531.30,178.51 537.00,178.16 C542.22,177.84 552.27,177.56 559.33,177.54 C568.64,177.51 572.40,177.65 573.96,179.86 C573.97,179.87 573.98,179.88 573.99,179.89 C574.90,181.21 575.04,183.26 575.10,186.44 C575.17,189.74 575.20,190.86 575.47,190.23 ZM 451.86 186.87 C451.97,186.77 452.10,186.35 452.24,185.66 C452.70,183.44 453.61,181.57 454.82,180.18 L 454.82 180.18 C456.75,177.98 459.41,176.96 462.23,177.57 C466.46,178.47 497.00,178.66 497.00,177.78 C497.00,176.35 501.06,172.92 502.04,173.52 C503.60,174.49 503.14,178.82 501.37,179.81 C499.65,180.77 496.68,188.00 498.00,188.00 C498.24,188.00 498.64,187.67 499.11,187.15 C495.15,193.33 491.25,199.63 488.67,204.10 L 485.83 209.00 L 451.00 209.00 L 451.00 140.26 L 451.12 165.38 C451.15,172.10 451.20,177.04 451.28,180.47 C451.26,186.62 451.42,188.22 451.86,186.87 ZM 505.00 192.12 C505.00,191.10 506.35,190.58 508.25,190.88 C508.66,190.95 509.00,190.30 509.00,189.44 C509.00,188.58 509.45,188.16 510.00,188.50 C510.55,188.84 511.00,188.65 511.00,188.08 C511.00,186.75 515.71,188.69 518.56,191.19 C522.20,194.38 522.05,193.15 518.04,186.95 C517.49,186.08 516.94,185.23 516.44,184.42 C520.01,189.95 526.80,199.28 531.88,205.40 C539.39,214.45 542.49,219.00 541.15,219.00 C540.65,219.00 539.69,218.33 539.01,217.51 C538.33,216.69 537.37,216.27 536.89,216.57 C536.40,216.87 536.00,216.71 536.00,216.20 C536.00,215.70 534.06,215.29 531.70,215.29 C529.33,215.29 525.08,214.69 522.26,213.97 C518.08,212.90 516.12,212.89 511.81,213.91 C508.89,214.60 502.90,215.25 498.50,215.34 L 490.50 215.52 L 489.20 219.51 C488.48,221.70 487.45,223.95 486.91,224.49 C485.61,225.79 488.20,218.50 491.02,212.90 C494.01,206.99 499.64,197.71 504.32,191.00 C506.43,187.98 509.13,184.04 510.33,182.26 C510.93,181.37 511.48,180.64 511.97,180.11 C510.97,181.39 509.27,183.86 506.27,188.22 L 505.64 189.14 C498.46,199.55 497.25,202.06 502.00,196.65 C503.65,194.77 505.00,192.73 505.00,192.12 ZM 426.70 184.47 L 426.50 220.50 L 423.87 220.80 C422.22,221.00 420.23,220.24 418.56,218.80 L 415.87 216.49 L 415.94 173.57 C415.97,160.33 415.96,150.85 416.10,144.07 C416.07,147.87 416.09,152.52 416.11,158.20 L 416.11 158.21 L 416.12 158.90 C416.12,160.54 416.13,162.13 416.14,163.67 C416.08,165.95 416.09,168.87 416.12,172.78 C416.18,180.87 416.44,186.60 416.69,185.50 C416.93,184.40 418.06,181.49 419.18,179.03 L 421.22 174.55 L 423.11 176.89 C424.32,178.38 425.00,180.80 425.00,183.61 C425.00,186.02 425.45,188.00 426.00,188.00 C426.29,188.00 426.53,186.75 426.70,184.47 ZM 584.74 180.86 C585.47,180.13 586.43,180.16 587.89,180.94 C589.05,181.56 590.01,181.72 590.02,181.29 C590.02,180.92 590.33,181.09 590.75,181.64 C590.78,181.69 590.82,181.74 590.86,181.80 C590.87,181.82 590.88,181.84 590.90,181.84 C590.93,181.89 590.97,181.95 591.00,182.00 C591.67,183.03 591.98,180.86 591.99,175.00 C591.99,173.93 592.01,172.67 592.04,171.29 C592.29,167.03 592.51,161.84 592.68,156.40 C592.93,152.56 593.00,150.03 592.88,148.64 C592.95,144.91 593.00,141.21 593.00,137.75 L 593.00 127.00 L 593.00 170.50 C593.00,194.43 592.70,214.00 592.34,214.00 C591.98,214.00 590.38,212.55 588.79,210.77 C586.58,208.29 585.71,207.85 585.07,208.89 C583.75,211.03 585.41,215.39 588.07,216.73 C590.09,217.74 590.55,217.70 590.82,216.48 C591.41,213.82 593.14,214.93 592.82,217.75 C592.60,219.64 591.87,220.56 590.50,220.71 C587.60,221.00 584.29,219.41 583.07,217.12 C582.36,215.80 582.00,200.79 582.00,172.62 L 582.00 130.11 L 584.22 128.56 C582.01,130.11 582.00,130.19 582.11,159.81 C582.14,165.58 582.20,170.77 582.29,174.98 C582.28,182.98 582.49,187.23 582.86,185.94 C582.89,185.96 582.93,185.89 582.97,185.70 C583.36,183.65 584.14,181.53 584.71,180.90 C584.72,180.88 584.73,180.87 584.74,180.86 ZM 612.00 173.61 L 612.00 215.77 L 609.25 217.56 C607.04,218.99 606.76,219.03 607.81,217.75 C608.60,216.78 608.99,214.25 608.81,211.33 C608.55,207.30 608.15,206.45 606.40,206.20 C604.24,205.89 601.70,208.74 600.73,212.54 C600.47,213.58 600.20,196.95 600.12,175.10 C600.17,180.85 600.44,184.41 600.95,181.80 C601.74,177.72 603.57,175.00 605.51,175.00 C607.43,175.00 610.00,179.56 610.00,182.96 C610.00,184.63 610.45,186.00 611.00,186.00 C611.63,186.00 612.00,179.33 612.00,168.00 C612.00,169.79 612.00,171.66 612.00,173.61 ZM 445.88 188.90 C445.91,188.24 445.93,187.55 445.95,186.81 L 446.19 215.50 L 443.10 218.44 C439.87,221.50 438.77,220.21 441.52,216.58 C443.05,214.56 442.75,210.28 440.84,206.70 C439.77,204.70 439.73,204.71 437.90,207.09 C435.90,209.69 435.29,217.44 437.00,218.50 C437.55,218.84 438.00,219.54 438.00,220.06 C438.00,221.46 435.01,221.20 434.46,219.75 C434.19,219.06 434.10,198.02 434.24,173.00 L 434.27 168.08 C434.26,172.19 434.27,175.54 434.32,178.20 C434.16,189.64 434.79,189.98 437.00,181.25 C437.59,178.91 438.49,177.00 439.00,177.00 C440.08,177.00 442.56,184.91 443.54,191.45 C444.08,195.03 444.59,196.43 445.00,195.88 C445.09,195.96 445.17,196.00 445.25,196.00 C445.57,196.00 445.78,193.64 445.88,188.90 ZM 419.67 217.33 C420.03,217.70 421.38,218.00 422.67,218.00 C424.71,218.00 425.00,217.52 425.00,214.15 C425.00,211.63 424.34,209.71 423.08,208.57 C421.25,206.92 421.11,206.93 420.08,208.85 C418.88,211.09 418.63,216.30 419.67,217.33 ZM 515.58 168.62 C514.58,167.01 513.84,166.04 513.57,166.05 C513.05,166.08 507.85,173.67 502.07,182.56 C502.24,182.17 502.35,181.83 502.39,181.57 C502.48,180.92 503.45,179.44 504.53,178.27 C505.61,177.11 507.85,173.88 509.50,171.10 C511.15,168.32 512.98,166.03 513.57,166.02 C513.84,166.01 514.58,167.00 515.58,168.62 ZM 570.92 139.38 C575.21,139.59 576.03,140.01 576.46,141.50 C576.56,141.83 576.62,144.68 576.65,149.05 C576.51,144.52 576.33,141.44 576.14,141.00 C575.76,140.11 574.31,139.64 570.92,139.38 ZM 443.68 129.64 C444.87,131.46 445.30,133.96 445.57,149.70 C445.25,134.47 444.84,131.43 443.64,129.57 ZM 600.12 172.87 L 600.12 172.33 C600.10,167.17 600.10,162.19 600.11,157.54 L 600.11 157.83 C600.13,160.96 600.15,163.91 600.19,166.59 C600.14,168.77 600.12,170.90 600.12,172.87 ZM 513.41 179.03 C513.79,178.97 514.00,179.27 514.00,179.96 C514.00,180.17 514.19,180.62 514.53,181.25 C514.08,180.48 513.79,179.93 513.70,179.70 C513.60,179.40 513.52,179.16 513.41,179.03 ZM 609.82 128.24 C608.79,127.07 607.28,127.00 605.05,127.00 C605.19,127.00 605.33,127.00 605.47,127.00 C606.90,127.00 608.02,126.99 608.90,127.45 C609.24,127.64 609.55,127.89 609.82,128.24 ZM 418.50 127.80 C418.67,127.66 418.84,127.54 419.03,127.44 C419.90,126.98 421.01,126.99 422.45,127.00 C422.67,127.00 422.91,127.00 423.15,127.00 C421.20,127.00 419.78,127.00 418.74,127.64 C418.66,127.69 418.58,127.74 418.50,127.80 ZM 612.00 161.21 C612.00,163.34 612.00,165.60 612.00,168.00 C612.00,166.73 612.00,165.53 611.99,164.38 C611.99,163.36 612.00,162.30 612.00,161.21 ZM 427.00 130.56 L 427.00 127.00 L 427.02 127.00 Z" fill="rgb(28,139,167)"/>
<path d="M 530.78 247.85 C528.98,249.42 526.38,251.24 525.00,251.88 L 522.50 253.06 L 525.00 251.28 C528.55,248.75 533.00,243.77 533.00,242.33 C533.00,239.99 529.93,239.26 525.92,240.64 C523.22,241.57 521.29,241.68 519.52,241.01 C516.84,239.99 489.21,240.46 488.13,241.54 C487.78,241.88 487.53,244.42 487.57,247.17 L 487.65 252.18 L 486.09 249.34 C484.99,247.33 484.54,243.73 484.56,237.00 C484.57,228.52 484.92,226.68 487.84,219.85 C488.18,219.04 488.58,218.17 489.01,217.26 C487.15,221.61 485.93,225.47 486.91,224.49 C487.45,223.95 488.48,221.70 489.20,219.51 L 490.50 215.52 L 498.50 215.34 C502.90,215.25 508.89,214.60 511.81,213.91 C516.12,212.89 518.08,212.90 522.26,213.97 C525.08,214.69 529.33,215.29 531.70,215.29 C534.06,215.29 536.00,215.70 536.00,216.20 C536.00,216.71 536.40,216.87 536.89,216.57 C537.37,216.27 538.33,216.69 539.01,217.51 C539.69,218.33 540.65,219.00 541.15,219.00 C542.39,219.00 539.84,215.12 533.52,207.39 C539.51,214.71 542.00,218.42 542.00,219.99 C542.00,220.57 543.16,222.80 544.59,224.95 C547.42,229.23 548.78,238.05 547.58,244.40 C546.81,248.56 545.00,249.25 545.00,245.39 C545.00,243.70 544.56,242.97 543.75,243.30 C543.54,243.38 543.34,243.47 543.15,243.54 C541.56,244.20 540.65,244.58 540.16,244.27 C539.51,243.87 539.59,242.28 539.78,238.58 C539.80,238.24 539.82,237.89 539.84,237.52 C540.09,232.45 539.86,230.00 539.11,230.00 C538.50,230.00 538.00,231.55 538.00,233.45 C538.00,237.39 536.24,241.93 534.01,243.72 C533.18,244.39 532.85,244.95 533.28,244.97 C533.72,244.99 532.59,246.28 530.78,247.85 ZM 600.12 172.87 C600.12,173.64 600.12,174.39 600.12,175.10 L 600.12 175.11 C600.20,196.95 600.47,213.58 600.73,212.54 C601.70,208.74 604.24,205.89 606.40,206.20 C608.15,206.45 608.55,207.30 608.81,211.33 C608.99,214.25 608.60,216.78 607.81,217.75 C606.76,219.03 607.04,218.99 609.25,217.56 L 611.01 216.41 C610.75,217.19 610.42,217.58 610.00,218.00 C607.11,220.89 601.43,220.73 600.63,217.75 C600.08,215.70 599.90,174.25 600.11,148.58 C600.10,151.42 600.10,154.44 600.11,157.54 L 600.11 157.54 C600.10,162.19 600.10,167.17 600.12,172.33 L 600.12 172.87 ZM 440.57 220.14 C437.94,221.42 435.11,221.44 434.46,219.75 C435.01,221.20 438.00,221.46 438.00,220.06 C438.00,219.54 437.55,218.84 437.00,218.50 C435.29,217.44 435.90,209.69 437.90,207.09 C439.73,204.71 439.77,204.70 440.84,206.70 C442.75,210.28 443.05,214.56 441.52,216.58 C439.73,218.94 439.57,220.31 440.57,220.14 ZM 419.67 217.33 C418.63,216.30 418.88,211.09 420.08,208.85 C421.11,206.93 421.25,206.92 423.08,208.57 C424.34,209.71 425.00,211.63 425.00,214.15 C425.00,217.52 424.71,218.00 422.67,218.00 C421.38,218.00 420.03,217.70 419.67,217.33 ZM 588.79 210.77 C590.31,212.47 591.85,213.88 592.29,213.99 C592.27,214.39 592.25,214.76 592.23,215.11 C591.76,214.72 591.13,215.08 590.82,216.48 C590.55,217.70 590.09,217.74 588.07,216.73 C585.41,215.39 583.75,211.03 585.07,208.89 C585.71,207.85 586.58,208.29 588.79,210.77 ZM 499.95 197.56 C504.55,190.11 509.38,183.06 512.85,179.00 C512.92,178.91 513.02,178.89 513.13,178.94 C512.90,179.02 512.55,179.36 511.97,180.11 C511.48,180.64 510.93,181.37 510.33,182.26 C509.13,184.04 506.43,187.98 504.32,191.00 C502.92,193.01 501.43,195.25 499.95,197.56 ZM 446.23 215.15 L 446.19 215.19 L 445.95 186.81 C445.95,186.55 445.96,186.29 445.96,186.02 ZM 593.00 130.56 L 593.00 127.00 L 593.02 127.00 ZM 445.37 141.33 C445.46,143.88 445.53,147.04 445.59,150.98 C445.59,150.54 445.58,150.11 445.57,149.70 C445.51,146.35 445.45,143.60 445.37,141.33 ZM 590.50 220.71 C590.61,220.69 590.72,220.68 590.82,220.66 C590.72,220.68 590.61,220.69 590.50,220.71 Z" fill="rgb(36,172,189)"/>
<path d="M 530.78 247.85 C532.59,246.28 533.72,244.99 533.28,244.97 C532.85,244.95 533.18,244.39 534.01,243.72 C534.86,243.04 535.64,241.96 536.28,240.66 C534.08,246.25 528.58,251.80 522.89,254.11 C518.04,256.08 509.29,256.52 504.18,255.05 C498.74,253.49 500.87,256.18 507.08,258.72 C516.21,262.46 524.56,261.47 531.38,255.84 C535.76,252.23 538.85,246.40 539.69,240.46 C539.59,242.84 539.63,243.95 540.16,244.27 C540.65,244.58 541.56,244.20 543.15,243.54 C543.34,243.47 543.54,243.38 543.75,243.30 C544.56,242.97 545.00,243.70 545.00,245.39 C545.00,248.14 545.91,248.58 546.72,247.11 C546.50,247.91 546.24,248.69 545.95,249.46 C543.08,257.06 536.12,264.08 528.76,266.79 C521.40,269.50 516.48,269.91 509.30,268.43 C498.38,266.17 490.97,260.46 486.67,251.01 C486.31,250.20 486.00,249.42 485.75,248.61 C485.86,248.87 485.97,249.12 486.09,249.34 L 487.65 252.18 L 487.57 247.17 C487.53,244.42 487.78,241.88 488.13,241.54 C489.21,240.46 516.84,239.99 519.52,241.01 C521.29,241.68 523.22,241.57 525.92,240.64 C529.93,239.26 533.00,239.99 533.00,242.33 C533.00,243.77 528.55,248.75 525.00,251.28 L 522.50 253.06 L 525.00 251.88 C526.38,251.24 528.98,249.42 530.78,247.85 ZM 539.91 235.89 C539.83,231.80 539.52,231.82 537.49,237.33 C537.82,236.05 538.00,234.72 538.00,233.45 C538.00,231.55 538.50,230.00 539.11,230.00 C539.77,230.00 540.03,231.93 539.91,235.89 ZM 547.93 236.95 C547.62,232.32 546.41,227.70 544.59,224.95 C544.61,224.99 544.63,225.02 544.65,225.05 C546.67,228.09 547.78,232.38 547.93,236.95 ZM 485.08 227.98 C485.51,225.55 486.33,223.37 487.84,219.85 C486.34,223.35 485.52,225.54 485.08,227.98 ZM 544.59 224.95 C543.16,222.80 542.00,220.57 542.00,219.99 C542.00,220.56 543.16,222.78 544.59,224.95 Z" fill="rgb(44,203,211)"/>
<path d="M 544.16 323.06 C534.85,325.04 508.07,326.48 500.50,325.41 C460.23,319.69 428.38,302.83 402.01,273.28 C390.93,260.86 380.96,244.17 375.05,228.13 C363.58,197.01 362.36,165.22 371.45,133.50 C374.88,121.50 386.46,98.53 394.39,87.98 C402.98,76.55 419.55,60.77 431.01,53.10 C472.03,25.66 524.62,19.33 569.07,36.48 C671.34,75.93 697.82,207.57 618.77,283.58 C597.53,304.01 573.26,316.85 544.16,323.06 ZM 489.35 311.93 C501.24,314.43 526.97,314.70 539.14,312.46 C557.23,309.11 577.62,300.69 593.66,289.92 C603.97,283.00 623.23,263.64 629.89,253.50 C640.22,237.77 648.24,217.81 651.60,199.50 C653.88,187.09 653.85,163.39 651.54,151.50 C640.60,95.18 599.13,52.63 543.73,40.86 C529.28,37.79 503.02,37.78 488.24,40.85 C470.11,44.61 453.83,51.48 438.43,61.87 C407.05,83.05 387.32,112.16 379.39,149.00 C376.78,161.11 376.76,191.07 379.35,202.90 C386.11,233.74 401.02,259.04 424.77,279.97 C442.31,295.42 465.58,306.94 489.35,311.93 ZM 463.71 8.11 C473.63,4.95 478.01,4.03 491.00,1.99 C496.25,1.17 497.97,0.72 473.45,0.47 C488.18,0.51 497.93,0.56 501.50,0.60 C501.84,0.61 502.01,0.61 502.01,0.62 C502.01,0.62 502.01,0.62 502.00,0.63 C501.44,0.70 500.29,0.86 498.82,1.06 C494.69,1.51 490.67,2.06 486.76,2.71 C480.58,3.70 474.39,5.07 468.23,6.79 C466.72,7.21 465.21,7.65 463.71,8.11 ZM 542.86 2.66 C554.65,4.39 566.31,7.38 577.59,11.53 C576.47,11.13 575.35,10.74 574.22,10.37 C564.17,6.94 553.70,4.37 542.86,2.66 ZM 443.48 15.76 C448.65,13.42 453.79,11.38 458.76,9.72 C455.87,10.71 453.01,11.78 450.18,12.93 C447.93,13.83 445.70,14.77 443.48,15.76 ZM 527.55 0.61 C527.18,0.61 526.99,0.62 526.99,0.63 C527.63,0.72 529.07,0.91 530.91,1.14 C530.73,1.13 530.55,1.11 530.36,1.09 C528.92,0.93 527.47,0.78 526.00,0.65 C525.98,0.65 525.98,0.64 525.98,0.64 C525.98,0.63 526.51,0.62 527.55,0.61 Z" fill="rgb(90,95,98)"/>
<path d="M 560.71 0.47 C532.50,0.71 533.57,1.15 539.00,1.98 C541.26,2.33 543.49,2.70 545.70,3.10 C544.76,2.94 543.81,2.80 542.86,2.66 C538.93,2.04 534.94,1.53 530.91,1.14 C529.07,0.91 527.63,0.72 527.00,0.63 L 526.99 0.63 C526.99,0.62 527.18,0.61 527.55,0.61 L 527.71 0.60 C532.66,0.56 544.10,0.51 560.71,0.47 ZM 484.93 2.97 C487.28,2.54 489.93,2.07 493.00,1.53 C496.40,0.93 486.58,0.59 443.78,0.39 C455.13,0.42 465.09,0.44 473.45,0.47 C497.97,0.72 496.25,1.17 491.00,1.99 C488.74,2.35 486.74,2.67 484.93,2.97 Z" fill="rgb(123,141,154)"/>
<path d="M 423.35 26.24 C430.20,22.10 437.29,18.44 444.60,15.26 C444.23,15.43 443.86,15.59 443.48,15.76 C437.33,18.51 431.29,21.62 425.43,25.05 C424.72,25.45 424.03,25.85 423.35,26.24 ZM 484.77 3.00 C485.63,2.84 486.48,2.68 487.34,2.53 C486.50,2.69 485.70,2.83 484.93,2.97 Z" fill="rgb(162,171,179)"/>
<path d="M 539.91 235.89 C539.89,236.40 539.87,236.94 539.84,237.52 C539.82,237.89 539.80,238.24 539.78,238.58 C539.75,239.28 539.72,239.90 539.69,240.46 C539.56,241.36 539.39,242.25 539.16,243.14 C539.64,240.31 537.88,240.47 534.68,244.46 C528.01,252.77 522.12,255.85 512.75,255.94 C507.15,256.00 505.26,257.56 508.20,259.16 C507.83,259.02 507.45,258.87 507.08,258.72 C500.87,256.18 498.74,253.49 504.18,255.05 C509.29,256.52 518.04,256.08 522.89,254.11 C528.58,251.80 534.08,246.25 536.28,240.66 C536.78,239.65 537.20,238.51 537.49,237.33 C539.52,231.82 539.83,231.80 539.91,235.89 ZM 520.90 260.68 C527.19,259.47 533.01,255.53 536.48,249.70 C535.11,252.08 533.38,254.19 531.38,255.84 C528.20,258.47 524.68,260.08 520.90,260.68 ZM 574.02 10.26 C575.93,10.90 577.82,11.58 579.70,12.29 C598.15,19.25 615.12,29.18 630.46,41.99 C615.16,29.21 598.14,19.29 579.67,12.32 C578.97,12.06 578.27,11.80 577.59,11.53 C576.40,11.09 575.21,10.67 574.02,10.26 ZM 457.12 10.28 C467.05,6.69 476.92,4.09 486.18,2.74 C485.71,2.82 485.24,2.91 484.77,3.00 C476.26,4.44 471.86,5.52 463.71,8.11 C462.05,8.62 460.40,9.16 458.76,9.72 C458.21,9.90 457.67,10.09 457.12,10.28 Z" fill="rgb(205,213,218)"/>
<path d="M 0.00 499.57 L 0.00 464.13 L 49.75 463.74 C77.11,463.52 100.85,463.03 102.50,462.64 C106.68,461.67 118.00,456.07 118.00,454.97 C118.00,454.48 119.34,452.55 120.97,450.68 C125.67,445.33 127.00,438.20 127.00,418.34 C127.00,408.86 126.50,398.71 125.89,395.80 C124.80,390.58 120.34,381.00 119.00,381.00 C118.62,381.00 117.01,379.88 115.42,378.51 C108.60,372.65 108.15,372.61 51.75,372.23 L -0.00 371.89 L -0.00 185.94 L 0.00 0.00 L 248.25 0.03 C386.87,0.05 495.84,0.44 495.00,0.92 C494.17,1.39 491.02,2.10 488.00,2.49 C461.46,5.93 429.53,19.87 405.50,38.52 C397.39,44.81 379.49,62.73 376.29,67.75 C375.33,69.26 374.29,70.72 373.97,71.00 C373.46,71.44 370.16,76.22 364.99,84.00 C356.67,96.51 347.57,118.38 343.54,135.54 C338.24,158.14 338.07,194.03 343.16,213.50 C343.74,215.69 344.35,218.20 344.51,219.07 C347.18,232.89 358.40,257.98 368.81,273.38 C399.04,318.10 448.66,347.66 499.00,350.96 C512.88,351.86 540.71,350.83 549.00,349.09 C595.89,339.28 635.32,313.01 661.71,274.00 C682.31,243.54 693.30,204.83 691.65,168.57 C690.36,140.26 683.70,115.85 670.67,91.76 C665.38,81.97 663.55,79.19 658.77,73.66 C657.26,71.92 656.02,70.01 656.02,69.42 C656.01,68.82 654.20,66.38 652.00,64.00 C649.80,61.62 647.99,59.40 647.98,59.08 C647.96,58.42 635.03,45.81 630.48,42.01 C605.07,20.78 575.20,7.49 541.55,2.43 C536.08,1.61 531.39,0.73 531.14,0.47 C530.88,0.21 641.67,0.00 777.33,0.00 L 1024.00 0.00 L 1023.93 194.25 C1023.89,301.09 1023.55,387.78 1023.18,386.91 C1021.76,383.58 1014.29,376.15 1010.96,374.76 C1002.62,371.28 994.01,370.51 964.50,370.61 C920.56,370.75 911.01,373.35 903.96,387.10 C900.73,393.39 899.73,402.93 900.25,422.35 C900.64,436.84 901.11,441.50 902.62,445.46 C905.21,452.29 911.33,458.48 917.00,460.01 C919.47,460.67 922.40,461.57 923.50,462.00 C930.18,464.61 935.60,465.00 964.66,465.00 C989.75,465.00 996.70,464.70 1001.54,463.41 C1004.82,462.54 1007.95,461.70 1008.50,461.56 C1014.48,460.01 1018.97,456.25 1021.61,450.60 L 1023.98 445.50 L 1023.99 490.25 L 1024.00 535.00 L 936.25 535.00 L 848.50 535.00 L 848.86 516.00 L 849.22 497.00 L 844.61 497.00 C841.18,497.00 840.00,497.38 840.00,498.50 C840.00,500.35 840.08,500.35 835.41,498.40 C829.83,496.07 819.47,496.81 815.20,499.85 C808.90,504.34 806.10,514.47 809.41,520.80 C812.70,527.09 820.63,532.00 827.51,532.00 C829.47,532.00 832.91,531.07 835.14,529.93 C839.81,527.54 840.76,527.95 839.41,531.77 L 838.45 534.50 L 666.98 534.75 L 495.50 535.01 L 495.79 516.00 L 496.08 497.00 L 491.54 497.00 C488.17,497.00 487.00,497.39 487.00,498.50 C487.00,500.35 487.02,500.35 483.08,498.39 C478.50,496.10 467.07,496.82 463.28,499.62 C458.29,503.32 456.00,507.75 456.00,513.70 C456.00,519.93 457.66,523.69 462.01,527.35 C467.67,532.12 478.70,533.21 483.61,529.49 C484.65,528.71 485.84,528.05 486.25,528.03 C487.15,527.99 487.24,531.22 486.39,533.42 C485.84,534.85 463.46,535.00 242.89,535.00 L 0.00 535.00 L 0.00 499.57 ZM 106.43 532.84 C114.41,531.24 119.00,526.94 119.00,521.07 C119.00,516.16 117.72,513.30 114.22,510.42 L 111.69 508.34 L 114.07 505.12 C116.97,501.20 117.21,495.49 114.65,491.59 C111.58,486.91 107.69,486.00 90.67,486.00 L 75.27 486.00 L 74.77 509.25 C74.49,522.04 74.45,532.84 74.69,533.25 C75.37,534.44 100.06,534.12 106.43,532.84 ZM 151.31 532.10 C154.99,530.22 155.05,530.22 156.08,532.16 C156.89,533.66 157.98,534.04 160.82,533.81 L 164.50 533.50 L 164.77 515.25 L 165.05 497.00 L 160.67 497.00 L 156.30 497.00 L 155.72 508.74 C155.15,520.29 155.09,520.53 152.05,523.24 C148.35,526.55 143.33,526.90 139.86,524.09 C137.67,522.32 137.46,521.30 137.00,509.84 L 136.50 497.50 L 131.75 497.20 L 127.00 496.89 L 127.02 507.20 C127.05,518.83 128.01,524.18 130.75,527.92 C135.04,533.78 144.32,535.66 151.31,532.10 ZM 184.77 515.25 L 185.05 497.00 L 180.52 497.00 L 176.00 497.00 L 176.00 514.83 C176.00,524.64 176.32,532.99 176.71,533.38 C177.11,533.77 179.02,533.96 180.96,533.80 L 184.50 533.50 L 184.77 515.25 ZM 205.77 507.75 L 206.03 482.00 L 201.52 482.00 L 197.00 482.00 L 197.00 508.06 L 197.00 534.11 L 201.25 533.81 L 205.50 533.50 L 205.77 507.75 ZM 240.41 532.07 C241.58,531.10 241.66,530.34 240.78,528.41 C239.83,526.33 239.19,526.06 236.43,526.58 C233.94,527.05 232.70,526.70 231.09,525.09 C229.26,523.26 229.00,521.81 229.00,513.50 L 229.00 504.00 L 233.89 504.00 C238.55,504.00 238.79,503.86 239.21,500.99 C239.46,499.34 239.43,497.77 239.16,497.49 C238.89,497.22 236.49,497.00 233.83,497.00 L 229.00 497.00 L 229.00 492.50 L 229.00 488.00 L 224.56 488.00 L 220.11 488.00 L 219.81 492.25 C219.53,496.05 219.21,496.53 216.75,496.82 C214.35,497.09 214.00,497.56 214.00,500.57 C214.00,503.71 214.25,504.00 217.00,504.00 L 220.00 504.00 L 220.00 514.60 C220.00,526.51 221.19,529.81 226.45,532.51 C229.92,534.28 238.05,534.03 240.41,532.07 ZM 290.36 532.62 C294.98,530.69 298.00,526.51 298.00,522.04 C298.00,516.60 294.99,514.32 284.99,512.17 C276.01,510.24 273.57,508.42 276.01,505.48 C277.16,504.11 278.61,503.89 283.96,504.32 C287.56,504.60 291.32,504.98 292.31,505.17 C293.56,505.40 294.55,504.50 295.50,502.27 L 296.88 499.05 L 292.73 497.93 C290.44,497.31 285.10,496.97 280.85,497.16 C271.69,497.57 268.01,499.68 266.58,505.32 C264.82,512.25 269.64,517.22 279.39,518.55 C288.75,519.83 291.05,521.80 287.43,525.43 C285.25,527.61 277.49,527.41 272.25,525.03 L 268.00 523.10 L 266.42 526.16 C264.57,529.74 264.97,530.28 271.00,532.36 C276.65,534.30 286.04,534.43 290.36,532.62 ZM 327.14 532.26 C327.76,531.64 327.92,529.89 327.51,528.03 C326.97,525.59 326.43,525.02 325.16,525.54 C321.57,527.03 320.42,527.04 318.50,525.63 C316.78,524.37 316.45,522.78 316.16,514.14 L 315.82 504.12 L 320.66 503.81 C325.30,503.51 325.51,503.37 325.81,500.31 C326.11,497.15 326.06,497.11 321.31,496.81 L 316.50 496.50 L 316.19 492.25 L 315.89 488.00 L 311.50 488.00 L 307.11 488.00 L 306.81 492.25 C306.53,496.05 306.21,496.53 303.75,496.82 C301.35,497.09 301.00,497.56 301.00,500.57 C301.00,503.71 301.25,504.00 304.00,504.00 L 307.00 504.00 L 307.00 514.60 C307.00,526.16 308.02,529.26 312.87,532.38 C315.78,534.25 325.23,534.17 327.14,532.26 ZM 345.00 521.78 C345.57,508.41 346.71,506.22 353.67,505.09 C357.35,504.50 357.51,504.31 357.81,500.20 C358.11,495.99 358.08,495.94 355.31,496.56 C349.65,497.82 348.47,498.27 346.75,499.77 C345.15,501.18 345.00,501.13 345.00,499.15 C345.00,497.27 344.44,497.00 340.50,497.00 L 336.00 497.00 L 336.00 515.56 L 336.00 534.11 L 340.25 533.81 L 344.50 533.50 L 345.00 521.78 ZM 391.82 531.40 C398.58,528.03 402.00,522.57 402.00,515.12 C402.00,505.25 396.80,498.96 387.19,497.22 C371.86,494.43 360.90,503.19 362.24,517.16 C362.82,523.23 366.75,528.55 373.02,531.75 C379.00,534.81 385.22,534.69 391.82,531.40 ZM 420.00 521.16 C420.46,509.70 420.67,508.68 422.86,506.91 C426.24,504.17 434.04,504.28 436.60,507.10 C438.22,508.90 438.53,510.99 438.71,521.35 L 438.91 533.50 L 443.21 533.50 L 447.50 533.50 L 447.79 521.50 C448.13,507.33 446.67,501.99 441.63,498.92 C437.29,496.27 427.76,496.31 422.74,499.00 L 419.00 501.00 L 419.00 499.00 C419.00,497.31 418.33,497.00 414.75,497.00 L 410.50 497.00 L 410.79 515.55 L 411.09 534.11 L 415.29 533.81 L 419.50 533.50 L 420.00 521.16 ZM 515.26 530.86 C517.01,528.51 517.07,527.92 515.85,525.36 C514.07,521.63 509.09,520.91 506.06,523.94 C503.46,526.54 503.47,528.05 506.12,531.42 C508.77,534.79 512.51,534.57 515.26,530.86 ZM 573.85 532.94 C585.45,530.45 593.14,522.19 593.82,511.48 C594.47,501.25 590.84,494.18 582.18,488.79 C578.81,486.69 577.12,486.47 561.99,486.15 L 545.47 485.81 L 545.16 508.87 C544.98,521.55 545.13,532.39 545.48,532.96 C546.33,534.34 567.42,534.32 573.85,532.94 ZM 632.01 530.61 C639.38,525.73 642.62,513.96 638.68,506.35 C636.45,502.03 631.61,498.20 627.37,497.41 C620.52,496.12 611.31,497.53 607.49,500.44 C595.94,509.25 598.34,526.27 612.00,532.39 C617.33,534.78 627.02,533.92 632.01,530.61 ZM 658.00 521.16 C658.46,509.70 658.67,508.68 660.86,506.91 C662.46,505.61 664.79,505.00 668.12,505.00 C675.59,505.00 676.39,506.47 677.00,521.28 L 677.50 533.50 L 681.50 533.50 L 685.50 533.50 L 685.81 523.00 C686.22,508.91 685.48,504.57 682.01,500.69 C679.23,497.58 678.95,497.50 670.69,497.50 C663.75,497.50 661.83,497.85 660.10,499.40 C658.03,501.29 658.00,501.28 658.00,499.15 C658.00,497.24 657.45,497.00 653.00,497.00 L 648.00 497.00 L 648.00 514.83 C648.00,524.64 648.32,532.99 648.71,533.38 C649.11,533.77 651.24,533.96 653.46,533.80 L 657.50 533.50 L 658.00 521.16 ZM 722.94 532.90 C724.96,532.29 727.71,530.96 729.06,529.94 L 731.50 528.08 L 728.90 525.46 L 726.29 522.84 L 722.41 524.92 C716.30,528.20 711.57,527.55 706.25,522.70 C701.64,518.50 702.94,518.00 718.50,518.00 L 733.00 518.00 L 733.00 513.97 C733.00,508.78 731.02,504.23 727.21,500.64 C724.69,498.28 723.03,497.69 717.68,497.26 C708.42,496.52 704.60,497.51 700.10,501.80 C692.99,508.58 692.35,518.53 698.51,526.60 C703.30,532.89 713.88,535.61 722.94,532.90 ZM 770.09 524.36 C769.79,511.23 773.02,505.00 780.11,505.00 C782.27,505.00 782.85,504.46 783.19,502.16 C783.42,500.60 783.43,498.80 783.22,498.16 C782.61,496.33 776.82,496.81 773.25,498.99 C770.01,500.96 770.00,500.96 770.00,498.99 C770.00,497.30 769.32,497.00 765.50,497.00 L 761.00 497.00 L 761.00 514.83 C761.00,524.64 761.32,532.99 761.71,533.38 C762.11,533.77 764.20,533.96 766.36,533.80 L 770.30 533.50 L 770.09 524.36 ZM 799.77 515.25 L 800.05 497.00 L 795.52 497.00 L 791.00 497.00 L 791.00 515.56 L 791.00 534.11 L 795.25 533.81 L 799.50 533.50 L 799.77 515.25 ZM 869.03 522.00 C869.33,515.67 869.94,509.70 870.40,508.72 C871.65,506.06 874.32,505.00 879.78,505.00 C887.27,505.00 887.88,506.16 888.22,521.04 L 888.50 533.50 L 893.00 533.50 L 897.50 533.50 L 897.82 523.50 C898.26,509.89 896.87,503.97 892.29,499.95 C888.83,496.91 888.44,496.81 880.95,497.15 C875.09,497.42 872.69,497.97 871.10,499.41 L 869.00 501.31 L 869.00 491.65 L 869.00 482.00 L 864.50 482.00 L 860.00 482.00 L 860.00 508.06 L 860.00 534.11 L 864.25 533.81 L 868.50 533.50 L 869.03 522.00 ZM 929.43 532.68 C931.88,530.88 930.74,524.47 928.16,525.54 C924.27,527.15 923.07,527.07 921.09,525.09 C919.26,523.26 919.00,521.81 919.00,513.55 L 919.00 504.11 L 923.75 503.80 C928.30,503.51 928.51,503.37 928.81,500.25 L 929.13 497.00 L 924.06 497.00 L 919.00 497.00 L 919.00 492.50 L 919.00 488.00 L 914.56 488.00 L 910.11 488.00 L 909.81 492.25 C909.53,496.05 909.21,496.53 906.75,496.82 C904.35,497.09 904.00,497.56 904.00,500.57 C904.00,503.71 904.25,504.00 907.00,504.00 L 910.00 504.00 L 910.04 514.75 C910.07,526.52 910.86,528.97 915.56,531.98 C919.03,534.19 926.81,534.59 929.43,532.68 ZM 945.78 532.44 C948.17,530.77 948.68,527.13 946.96,523.93 C945.46,521.12 939.60,521.30 937.56,524.22 C935.45,527.22 935.60,528.94 938.17,531.69 C940.72,534.39 942.71,534.59 945.78,532.44 ZM 184.80 489.80 C185.46,489.14 186.00,487.43 186.00,486.00 C186.00,482.66 184.30,481.00 180.87,481.00 C177.84,481.00 175.00,483.29 175.00,485.74 C175.00,489.89 181.87,492.73 184.80,489.80 ZM 799.17 489.35 C800.18,488.43 801.00,486.89 801.00,485.92 C801.00,481.22 793.40,479.17 790.63,483.11 C786.92,488.41 794.28,493.77 799.17,489.35 ZM 172.65 456.35 C172.29,452.14 172.00,446.29 172.00,443.35 L 172.00 438.00 L 158.08 438.00 L 144.16 438.00 L 143.60 440.75 C142.83,444.51 143.40,461.23 144.35,462.76 C144.90,463.65 149.08,464.00 159.21,464.00 L 173.29 464.00 L 172.65 456.35 ZM 222.50 451.84 C222.50,445.42 222.75,439.92 223.05,439.62 C223.35,439.31 238.43,438.91 256.55,438.73 C288.57,438.41 289.65,438.33 294.79,436.06 C305.50,431.32 310.39,421.72 310.35,405.50 C310.32,389.23 305.47,379.86 294.50,374.81 C289.53,372.53 289.18,372.51 240.75,372.20 L 192.00 371.89 L 192.00 417.97 L 192.00 464.05 L 207.25 463.78 L 222.50 463.50 L 222.50 451.84 ZM 350.00 451.00 L 350.00 438.00 L 335.50 438.00 L 321.00 438.00 L 321.00 451.00 L 321.00 464.00 L 335.50 464.00 L 350.00 464.00 L 350.00 451.00 ZM 399.78 451.31 L 400.06 439.13 L 431.78 438.64 C467.89,438.08 469.17,437.97 474.70,435.15 C483.96,430.43 488.00,421.33 488.00,405.21 C488.00,388.16 484.19,380.53 473.00,375.14 L 467.50 372.50 L 418.75 372.21 L 370.00 371.91 L 370.00 417.98 L 370.00 464.05 L 384.75 463.78 L 399.50 463.50 L 399.78 451.31 ZM 536.23 418.00 L 535.96 372.00 L 520.98 372.00 L 506.00 372.00 L 506.00 418.00 L 506.00 464.00 L 521.25 464.00 L 536.50 464.00 L 536.23 418.00 ZM 588.80 452.09 C588.63,445.53 588.72,439.95 589.00,439.68 C589.28,439.40 604.58,439.02 623.00,438.82 C655.36,438.48 656.67,438.39 661.49,436.18 C668.04,433.18 670.62,430.65 673.84,424.00 C676.32,418.88 676.50,417.58 676.50,405.00 C676.50,391.75 676.44,391.40 673.40,386.00 C671.69,382.97 668.54,379.28 666.40,377.77 C658.64,372.35 654.91,372.00 604.40,372.00 L 558.22 372.00 L 558.60 417.75 C558.82,442.91 558.99,463.61 558.99,463.75 C559.00,463.89 565.77,464.00 574.05,464.00 L 589.09 464.00 L 588.80 452.09 ZM 725.23 420.75 C725.38,396.96 725.34,376.26 725.14,374.75 L 724.77 372.00 L 709.89 372.00 L 695.00 372.00 L 695.00 418.00 L 695.00 464.00 L 709.98 464.00 L 724.96 464.00 L 725.23 420.75 ZM 777.22 445.25 C777.06,434.94 777.29,419.56 777.72,411.08 L 778.50 395.65 L 786.00 404.49 C794.25,414.22 801.38,422.85 810.45,434.12 C813.72,438.18 816.65,441.73 816.97,442.00 C817.29,442.27 821.51,447.35 826.35,453.27 L 835.14 464.04 L 857.82 463.77 L 880.50 463.50 L 880.76 417.75 L 881.02 372.00 L 866.62 372.00 L 852.22 372.00 L 851.76 375.75 C851.51,377.81 851.52,390.58 851.78,404.13 C852.05,417.67 851.94,430.91 851.55,433.53 L 850.83 438.31 L 846.92 434.03 C844.76,431.67 843.00,429.55 843.00,429.31 C843.00,428.56 825.79,407.64 823.32,405.38 C822.04,404.22 821.00,402.81 821.00,402.24 C821.00,401.68 820.31,400.95 819.48,400.63 C818.64,400.31 817.63,399.21 817.23,398.20 C816.83,397.18 812.00,390.89 806.50,384.22 L 796.50 372.08 L 772.25 372.04 L 748.00 372.00 L 748.00 418.00 L 748.00 464.00 L 762.75 464.00 L 777.50 464.00 L 777.22 445.25 ZM 468.27 520.47 C465.11,517.31 464.80,516.53 465.28,512.93 C465.96,507.85 467.28,506.30 472.12,504.85 C483.60,501.41 491.69,512.51 483.60,520.60 C480.81,523.39 479.44,524.00 476.00,524.00 C472.53,524.00 471.19,523.39 468.27,520.47 ZM 820.98 521.13 C818.06,518.69 817.55,517.62 817.55,514.03 C817.55,510.48 818.09,509.31 820.92,506.78 C824.02,504.01 824.74,503.81 829.40,504.35 C833.39,504.81 835.10,505.60 837.25,507.98 C840.36,511.43 840.66,513.82 838.51,517.99 C835.04,524.68 826.97,526.13 820.98,521.13 ZM 941.69 442.03 C936.61,441.05 932.92,438.15 931.40,433.94 C929.81,429.54 929.62,407.42 931.14,402.90 C931.77,401.03 933.01,398.67 933.89,397.65 C937.69,393.27 939.94,392.91 965.08,392.79 C987.67,392.68 989.25,392.79 991.79,394.69 C993.28,395.79 994.64,397.89 994.82,399.35 L 995.13 402.00 L 1009.57 402.00 L 1024.00 402.00 L 1024.00 406.50 L 1024.00 411.00 L 991.46 411.00 L 958.92 411.00 L 959.21 420.25 L 959.50 429.50 L 977.87 429.77 L 996.24 430.05 L 995.61 433.21 C994.82,437.15 992.45,439.87 988.28,441.64 C984.76,443.13 948.91,443.43 941.69,442.03 ZM 30.78 417.69 L 30.50 393.89 L 59.00 394.19 C86.81,394.49 87.59,394.56 91.23,396.82 C96.26,399.95 97.28,404.14 96.85,419.96 C96.54,430.93 96.23,432.88 94.31,435.57 C90.89,440.36 87.25,440.93 57.78,441.23 L 31.07 441.50 L 30.78 417.69 ZM 496.57 332.28 C492.13,331.61 487.15,330.86 485.50,330.61 C476.26,329.20 449.17,319.61 443.85,315.87 C442.39,314.84 440.90,314.00 440.55,314.00 C440.19,314.00 437.34,312.37 434.20,310.38 C416.38,299.04 400.11,284.01 388.15,267.82 C384.22,262.49 381.00,257.69 381.00,257.15 C381.00,256.61 380.63,256.02 380.19,255.83 C379.08,255.38 370.73,238.05 367.64,229.80 C361.83,214.28 357.58,190.29 357.84,174.50 C358.24,151.24 364.22,126.38 374.14,106.73 C378.53,98.02 388.85,82.42 394.13,76.50 C396.58,73.75 399.50,70.31 400.61,68.86 C403.45,65.12 421.22,50.49 429.18,45.32 C445.54,34.71 467.57,25.82 485.50,22.58 C490.45,21.68 496.30,20.60 498.50,20.18 C506.68,18.60 535.34,19.97 548.00,22.54 C592.71,31.64 632.65,61.85 655.03,103.50 C674.52,139.79 677.79,185.93 663.81,227.50 C660.51,237.33 651.54,254.87 644.80,264.68 C629.08,287.59 607.46,306.09 582.55,317.98 C572.91,322.58 553.51,329.00 543.00,331.08 C533.16,333.02 506.10,333.72 496.57,332.28 ZM 544.16 323.06 C573.26,316.85 597.53,304.01 618.77,283.58 C697.82,207.57 671.34,75.93 569.07,36.48 C524.62,19.33 472.03,25.66 431.01,53.10 C419.55,60.77 402.98,76.55 394.39,87.98 C386.46,98.53 374.88,121.50 371.45,133.50 C362.36,165.22 363.58,197.01 375.05,228.13 C380.96,244.17 390.93,260.86 402.01,273.28 C428.38,302.83 460.23,319.69 500.50,325.41 C508.07,326.48 534.85,325.04 544.16,323.06 ZM 84.00 519.50 L 84.00 513.00 L 94.85 513.00 C107.02,513.00 109.00,513.95 109.00,519.77 C109.00,524.83 106.24,526.00 94.28,526.00 L 84.00 526.00 L 84.00 519.50 ZM 84.00 499.62 L 84.00 493.00 L 93.28 493.00 C104.03,493.00 107.00,494.31 107.00,499.03 C107.00,503.58 103.39,505.32 92.87,505.82 L 84.00 506.24 L 84.00 499.62 ZM 378.50 526.08 C374.70,524.44 371.78,520.26 371.27,515.71 C370.84,511.88 371.16,510.86 373.64,508.08 C379.25,501.79 389.58,503.18 392.02,510.55 C392.67,512.52 392.92,515.60 392.59,517.39 C391.43,523.54 383.68,528.33 378.50,526.08 ZM 555.00 509.70 L 555.00 493.16 L 564.75 493.72 C570.11,494.02 575.70,494.88 577.17,495.62 C581.89,498.01 584.10,502.26 584.13,509.03 C584.17,515.90 582.91,518.44 577.40,522.64 C574.15,525.12 572.76,525.46 564.38,525.83 L 555.00 526.24 L 555.00 509.70 ZM 615.24 525.00 C602.26,517.09 612.53,498.53 626.02,505.51 C629.79,507.46 631.01,509.85 630.97,515.18 C630.93,519.89 629.52,522.36 625.27,525.16 C621.71,527.51 619.28,527.47 615.24,525.00 ZM 704.00 510.07 C704.00,504.28 716.74,501.65 721.55,506.45 C726.25,511.16 725.10,512.00 714.00,512.00 C704.79,512.00 704.00,511.85 704.00,510.07 ZM 222.81 406.32 C222.58,398.45 222.85,395.29 223.82,394.32 C224.82,393.32 229.56,393.01 243.32,393.05 C268.54,393.12 274.65,393.89 277.64,397.37 C282.30,402.79 279.94,413.78 273.65,415.97 C271.95,416.56 260.63,417.00 246.92,417.00 L 223.13 417.00 L 222.81 406.32 ZM 400.71 416.38 C400.32,415.99 400.00,410.83 400.00,404.92 L 400.00 394.18 L 408.66 393.46 C413.43,393.06 425.21,392.95 434.84,393.22 L 452.34 393.70 L 455.17 396.87 C457.47,399.44 458.00,400.96 458.00,405.00 C458.00,409.08 457.48,410.56 455.08,413.23 L 452.17 416.50 L 426.80 416.80 C412.84,416.96 401.11,416.77 400.71,416.38 ZM 588.79 407.25 C588.57,401.89 588.76,396.45 589.21,395.16 L 590.02 392.82 L 614.76 393.17 C640.67,393.54 642.80,393.89 645.09,398.17 C646.80,401.36 646.49,409.60 644.56,412.54 C643.65,413.94 641.76,415.52 640.38,416.04 C639.00,416.57 626.92,417.00 613.53,417.00 L 589.19 417.00 L 588.79 407.25 ZM 489.35 311.93 C465.58,306.94 442.31,295.42 424.77,279.97 C401.02,259.04 386.11,233.74 379.35,202.90 C376.76,191.07 376.78,161.11 379.39,149.00 C387.32,112.16 407.05,83.05 438.43,61.87 C453.83,51.48 470.11,44.61 488.24,40.85 C503.02,37.78 529.28,37.79 543.73,40.86 C599.13,52.63 640.60,95.18 651.54,151.50 C653.85,163.39 653.88,187.09 651.60,199.50 C648.24,217.81 640.22,237.77 629.89,253.50 C623.23,263.64 603.97,283.00 593.66,289.92 C577.62,300.69 557.23,309.11 539.14,312.46 C526.97,314.70 501.24,314.43 489.35,311.93 ZM 528.76 266.79 C536.12,264.08 543.08,257.06 545.95,249.46 C549.05,241.24 548.50,230.87 544.65,225.05 C543.19,222.85 542.00,220.57 542.00,219.99 C542.00,218.29 539.06,214.05 531.88,205.40 C525.20,197.35 514.74,182.63 513.77,179.91 C513.50,179.14 513.08,178.73 512.85,179.00 C505.64,187.44 492.54,208.82 487.84,219.85 C484.91,226.72 484.58,228.47 484.60,237.00 C484.62,244.39 485.08,247.50 486.67,251.01 C490.97,260.46 498.38,266.17 509.30,268.43 C516.48,269.91 521.40,269.50 528.76,266.79 ZM 426.76 173.75 L 427.02 127.00 L 423.16 127.00 C415.77,127.00 416.03,125.33 415.94,173.57 L 415.87 216.49 L 418.56 218.80 C420.23,220.24 422.22,221.00 423.87,220.80 L 426.50 220.50 L 426.76 173.75 ZM 443.43 218.08 L 446.23 215.15 L 445.85 173.76 C445.51,135.99 445.32,132.14 443.68,129.63 C442.17,127.33 441.28,126.94 438.19,127.19 L 434.50 127.50 L 434.24 173.00 C434.10,198.02 434.19,219.06 434.46,219.75 C435.36,222.10 440.49,221.14 443.43,218.08 ZM 592.76 173.75 L 593.02 127.00 L 589.73 127.00 C587.92,127.00 585.44,127.70 584.22,128.56 L 582.00 130.11 L 582.00 172.62 C582.00,200.79 582.36,215.80 583.07,217.12 C584.29,219.41 587.60,221.00 590.50,220.71 C592.46,220.50 592.50,219.67 592.76,173.75 ZM 610.00 218.00 C611.94,216.06 612.00,214.67 612.00,173.72 C612.00,126.01 612.15,127.00 605.05,127.00 C602.47,127.00 601.01,127.52 600.61,128.58 C599.82,130.64 599.84,214.80 600.63,217.75 C601.43,220.73 607.11,220.89 610.00,218.00 ZM 488.67 204.10 C495.73,191.88 512.61,166.10 513.57,166.05 C514.16,166.02 516.94,170.61 519.76,176.25 C524.60,185.95 533.37,198.57 540.27,205.75 L 543.39 209.00 L 559.70 209.00 C572.05,209.00 576.01,208.70 576.05,207.75 C576.57,193.51 576.89,142.96 576.46,141.50 C575.95,139.76 574.92,139.47 568.35,139.29 C559.73,139.05 555.77,137.27 552.25,132.05 C550.39,129.28 550.00,127.34 550.00,120.85 L 550.00 113.00 L 514.00 113.00 L 478.00 113.00 L 477.98 120.25 C477.95,133.56 472.63,139.00 458.86,139.80 L 451.00 140.26 L 451.00 174.63 L 451.00 209.00 L 468.42 209.00 L 485.83 209.00 L 488.67 204.10 ZM 558.69 105.40 C560.47,103.62 561.04,102.10 560.81,99.73 L 560.50 96.50 L 513.75 96.24 L 467.00 95.98 L 467.00 99.84 C467.00,103.63 468.68,106.12 472.00,107.25 C472.83,107.53 492.12,107.77 514.88,107.80 L 556.26 107.83 L 558.69 105.40 ZM 559.65 88.69 C559.75,88.58 560.14,87.28 560.51,85.80 C561.04,83.69 560.63,82.54 558.64,80.55 L 556.09 78.00 L 513.55 78.00 C471.93,78.00 470.96,78.04 468.94,80.06 C467.53,81.47 466.98,83.12 467.19,85.31 L 467.50 88.50 L 506.00 89.07 C538.94,89.57 558.91,89.42 559.65,88.69 ZM 509.75 259.84 C504.80,258.03 506.35,256.01 512.75,255.94 C522.12,255.85 528.01,252.77 534.68,244.46 C539.10,238.96 540.77,240.75 537.60,247.59 C532.66,258.25 520.29,263.69 509.75,259.84 Z" fill="rgb(253,253,253)"/>
</g>
</svg>